<svg width="164" height="44" viewBox="0 0 164 44" fill="none" xmlns="http://www.w3.org/2000/svg">
<path d="M8.50001 2.33337C12.182 2.33337 15.1667 5.31804 15.1667 9.00004C15.1667 12.682 12.182 15.6667 8.50001 15.6667C4.81801 15.6667 1.83334 12.682 1.83334 9.00004C1.83334 5.31804 4.81801 2.33337 8.50001 2.33337ZM8.50001 3.66671C7.08552 3.66671 5.72897 4.22861 4.72877 5.2288C3.72858 6.229 3.16668 7.58555 3.16668 9.00004C3.16668 10.4145 3.72858 11.7711 4.72877 12.7713C5.72897 13.7715 7.08552 14.3334 8.50001 14.3334C9.9145 14.3334 11.2711 13.7715 12.2712 12.7713C13.2714 11.7711 13.8333 10.4145 13.8333 9.00004C13.8333 7.58555 13.2714 6.229 12.2712 5.2288C11.2711 4.22861 9.9145 3.66671 8.50001 3.66671ZM11.0553 5.89137C11.1318 5.83774 11.2248 5.81281 11.3178 5.82098C11.4109 5.82915 11.4981 5.86989 11.564 5.93604C11.6298 6.00187 11.6702 6.0889 11.6779 6.18168C11.6856 6.27445 11.6601 6.36694 11.606 6.44271C10.1527 8.47337 9.35268 9.56137 9.20734 9.70737C9.01962 9.89472 8.76523 9.99994 8.50001 9.99994C8.23479 9.99994 7.9804 9.89472 7.79268 9.70737C7.60533 9.51965 7.50011 9.26526 7.50011 9.00004C7.50011 8.73482 7.60533 8.48044 7.79268 8.29271C8.04201 8.04404 9.12934 7.24337 11.0553 5.89137ZM12.1667 8.33337C12.3435 8.33337 12.5131 8.40361 12.6381 8.52864C12.7631 8.65366 12.8333 8.82323 12.8333 9.00004C12.8333 9.17685 12.7631 9.34642 12.6381 9.47145C12.5131 9.59647 12.3435 9.66671 12.1667 9.66671C11.9899 9.66671 11.8203 9.59647 11.6953 9.47145C11.5702 9.34642 11.5 9.17685 11.5 9.00004C11.5 8.82323 11.5702 8.65366 11.6953 8.52864C11.8203 8.40361 11.9899 8.33337 12.1667 8.33337ZM4.83334 8.33337C5.01015 8.33337 5.17972 8.40361 5.30475 8.52864C5.42977 8.65366 5.50001 8.82323 5.50001 9.00004C5.50001 9.17685 5.42977 9.34642 5.30475 9.47145C5.17972 9.59647 5.01015 9.66671 4.83334 9.66671C4.65653 9.66671 4.48696 9.59647 4.36194 9.47145C4.23691 9.34642 4.16668 9.17685 4.16668 9.00004C4.16668 8.82323 4.23691 8.65366 4.36194 8.52864C4.48696 8.40361 4.65653 8.33337 4.83334 8.33337ZM6.37868 5.93604C6.50368 6.06122 6.57384 6.23094 6.57371 6.40785C6.57359 6.58475 6.50319 6.75437 6.37801 6.87937C6.25283 7.00438 6.08312 7.07454 5.90621 7.07441C5.7293 7.07429 5.55968 7.00389 5.43468 6.87871C5.37278 6.81672 5.3237 6.74316 5.29023 6.6622C5.25677 6.58125 5.23958 6.4945 5.23964 6.4069C5.2397 6.31931 5.25702 6.23258 5.2906 6.15167C5.32417 6.07077 5.37336 5.99727 5.43534 5.93537C5.56053 5.81037 5.73024 5.74021 5.90715 5.74034C5.99475 5.7404 6.08147 5.75771 6.16238 5.79129C6.24328 5.82487 6.31678 5.87406 6.37868 5.93604ZM8.50001 4.66671C8.67682 4.66671 8.84639 4.73695 8.97141 4.86197C9.09644 4.98699 9.16668 5.15656 9.16668 5.33337C9.16668 5.51019 9.09644 5.67975 8.97141 5.80478C8.84639 5.9298 8.67682 6.00004 8.50001 6.00004C8.3232 6.00004 8.15363 5.9298 8.02861 5.80478C7.90358 5.67975 7.83334 5.51019 7.83334 5.33337C7.83334 5.15656 7.90358 4.98699 8.02861 4.86197C8.15363 4.73695 8.3232 4.66671 8.50001 4.66671Z" fill="white"/>
<path d="M24.53 13.078C23.8453 13.078 23.204 13.0607 22.606 13.026C22.0167 13 21.501 12.961 21.059 12.909V12.116H24.192C24.5647 12.116 24.8983 12.077 25.193 11.999C25.4877 11.921 25.7173 11.778 25.882 11.57C26.0553 11.3533 26.142 11.05 26.142 10.66V10.023C26.142 9.685 26.0553 9.41633 25.882 9.217C25.7173 9.01767 25.5093 8.87467 25.258 8.788C25.0067 8.70133 24.7467 8.65367 24.478 8.645L22.021 8.554V7.8L24.439 7.696C24.907 7.67867 25.284 7.579 25.57 7.397C25.8647 7.20633 26.012 6.89 26.012 6.448V5.811C26.012 5.33433 25.8517 4.97033 25.531 4.719C25.219 4.459 24.7467 4.329 24.114 4.329H21.384V3.536C21.7827 3.484 22.2377 3.44067 22.749 3.406C23.269 3.37133 23.8497 3.354 24.491 3.354C25.063 3.36267 25.5353 3.46233 25.908 3.653C26.2893 3.835 26.571 4.095 26.753 4.433C26.935 4.76233 27.026 5.15233 27.026 5.603V6.422C27.026 6.71667 26.9783 6.97233 26.883 7.189C26.7963 7.397 26.6793 7.57033 26.532 7.709C26.3933 7.84767 26.2417 7.956 26.077 8.034C25.921 8.10333 25.778 8.151 25.648 8.177C25.7953 8.21167 25.9557 8.27667 26.129 8.372C26.3023 8.45867 26.467 8.58 26.623 8.736C26.7877 8.892 26.922 9.087 27.026 9.321C27.13 9.555 27.182 9.83233 27.182 10.153V10.816C27.182 11.5527 26.948 12.116 26.48 12.506C26.0207 12.8873 25.3707 13.078 24.53 13.078ZM29.1185 13.013C28.9798 13.013 28.9105 12.9437 28.9105 12.805V11.765C28.9105 11.6263 28.9798 11.557 29.1185 11.557H29.6905C29.8292 11.557 29.8985 11.6263 29.8985 11.765V12.805C29.8985 12.8743 29.8768 12.9263 29.8335 12.961C29.7988 12.9957 29.7512 13.013 29.6905 13.013H29.1185ZM32.605 13L35.946 4.472H31.136V3.432H36.921L37.259 3.965L33.762 13H32.605ZM44.9875 13.078C44.7969 13.078 44.5672 13.0693 44.2985 13.052C44.0385 13.0433 43.7699 13.026 43.4925 13C43.2152 12.9827 42.9509 12.961 42.6995 12.935C42.4569 12.909 42.2532 12.8787 42.0885 12.844V12.051C42.3052 12.0683 42.5695 12.0857 42.8815 12.103C43.1935 12.1203 43.5272 12.1333 43.8825 12.142C44.2465 12.1507 44.6019 12.155 44.9485 12.155C45.3385 12.155 45.6895 12.116 46.0015 12.038C46.3135 11.96 46.5605 11.817 46.7425 11.609C46.9332 11.401 47.0285 11.102 47.0285 10.712V10.062C47.0285 9.62 46.9159 9.28633 46.6905 9.061C46.4652 8.827 46.1012 8.71 45.5985 8.71H44.5715C43.7829 8.71 43.1632 8.53667 42.7125 8.19C42.2705 7.84333 42.0495 7.24533 42.0495 6.396V5.85C42.0495 4.94867 42.2922 4.30733 42.7775 3.926C43.2629 3.54467 43.9475 3.354 44.8315 3.354C45.1089 3.354 45.4209 3.37133 45.7675 3.406C46.1142 3.432 46.4479 3.46667 46.7685 3.51C47.0979 3.54467 47.3709 3.58367 47.5875 3.627V4.42C47.2062 4.38533 46.7729 4.355 46.2875 4.329C45.8109 4.303 45.3602 4.29 44.9355 4.29C44.5455 4.29 44.2075 4.33767 43.9215 4.433C43.6355 4.51967 43.4145 4.68 43.2585 4.914C43.1112 5.13933 43.0375 5.46433 43.0375 5.889V6.331C43.0375 6.85967 43.1762 7.22367 43.4535 7.423C43.7309 7.62233 44.1165 7.722 44.6105 7.722H45.7155C46.2442 7.722 46.6775 7.81733 47.0155 8.008C47.3535 8.19867 47.6049 8.463 47.7695 8.801C47.9342 9.13033 48.0165 9.51167 48.0165 9.945V10.686C48.0165 11.3273 47.8779 11.8213 47.6005 12.168C47.3319 12.5147 46.9679 12.753 46.5085 12.883C46.0579 13.013 45.5509 13.078 44.9875 13.078ZM52.4252 13.078C51.6972 13.078 51.1208 12.9697 50.6962 12.753C50.2802 12.5363 49.9812 12.168 49.7992 11.648C49.6172 11.128 49.5262 10.4173 49.5262 9.516C49.5262 8.59733 49.6172 7.88233 49.7992 7.371C49.9898 6.851 50.2975 6.487 50.7222 6.279C51.1468 6.071 51.7188 5.967 52.4382 5.967C53.0535 5.967 53.5518 6.03633 53.9332 6.175C54.3232 6.31367 54.6092 6.552 54.7912 6.89C54.9818 7.21933 55.0772 7.67867 55.0772 8.268C55.0772 8.67533 54.9948 9.00467 54.8302 9.256C54.6742 9.49867 54.4445 9.67633 54.1412 9.789C53.8465 9.893 53.4955 9.945 53.0882 9.945H50.5532C50.5618 10.5083 50.6225 10.9633 50.7352 11.31C50.8478 11.648 51.0515 11.895 51.3462 12.051C51.6495 12.1983 52.0915 12.272 52.6722 12.272H54.9082V12.896C54.5095 12.948 54.1195 12.9913 53.7382 13.026C53.3568 13.0607 52.9192 13.078 52.4252 13.078ZM50.5402 9.269H53.0102C53.4002 9.269 53.6862 9.19967 53.8682 9.061C54.0588 8.91367 54.1542 8.65367 54.1542 8.281C54.1542 7.88233 54.0935 7.57467 53.9722 7.358C53.8595 7.13267 53.6775 6.97667 53.4262 6.89C53.1835 6.79467 52.8542 6.747 52.4382 6.747C51.9528 6.747 51.5715 6.82067 51.2942 6.968C51.0168 7.10667 50.8218 7.358 50.7092 7.722C50.5965 8.086 50.5402 8.60167 50.5402 9.269ZM59.3284 13.078C58.9384 13.078 58.5744 13.026 58.2364 12.922C57.8984 12.818 57.6037 12.636 57.3524 12.376C57.101 12.116 56.906 11.7563 56.7674 11.297C56.6287 10.8377 56.5594 10.2527 56.5594 9.542C56.5594 8.82267 56.6244 8.23333 56.7544 7.774C56.8844 7.306 57.0707 6.942 57.3134 6.682C57.556 6.422 57.8507 6.24 58.1974 6.136C58.544 6.032 58.9297 5.98 59.3544 5.98C59.701 5.98 60.078 5.99733 60.4854 6.032C60.8927 6.058 61.2827 6.10133 61.6554 6.162V6.773H59.6274C59.1854 6.773 58.8127 6.84667 58.5094 6.994C58.206 7.14133 57.9764 7.41867 57.8204 7.826C57.6644 8.22467 57.5864 8.80533 57.5864 9.568C57.5864 10.3047 57.6687 10.868 57.8334 11.258C57.998 11.648 58.232 11.9167 58.5354 12.064C58.8387 12.2027 59.207 12.272 59.6404 12.272H61.7594V12.87C61.56 12.9047 61.326 12.9393 61.0574 12.974C60.7974 13.0087 60.52 13.0347 60.2254 13.052C59.9307 13.0693 59.6317 13.078 59.3284 13.078Z" fill="white"/>
<path d="M106.53 13.078C105.845 13.078 105.204 13.0607 104.606 13.026C104.017 13 103.501 12.961 103.059 12.909V12.116H106.192C106.565 12.116 106.898 12.077 107.193 11.999C107.488 11.921 107.717 11.778 107.882 11.57C108.055 11.3533 108.142 11.05 108.142 10.66V10.023C108.142 9.685 108.055 9.41633 107.882 9.217C107.717 9.01767 107.509 8.87467 107.258 8.788C107.007 8.70133 106.747 8.65367 106.478 8.645L104.021 8.554V7.8L106.439 7.696C106.907 7.67867 107.284 7.579 107.57 7.397C107.865 7.20633 108.012 6.89 108.012 6.448V5.811C108.012 5.33433 107.852 4.97033 107.531 4.719C107.219 4.459 106.747 4.329 106.114 4.329H103.384V3.536C103.783 3.484 104.238 3.44067 104.749 3.406C105.269 3.37133 105.85 3.354 106.491 3.354C107.063 3.36267 107.535 3.46233 107.908 3.653C108.289 3.835 108.571 4.095 108.753 4.433C108.935 4.76233 109.026 5.15233 109.026 5.603V6.422C109.026 6.71667 108.978 6.97233 108.883 7.189C108.796 7.397 108.679 7.57033 108.532 7.709C108.393 7.84767 108.242 7.956 108.077 8.034C107.921 8.10333 107.778 8.151 107.648 8.177C107.795 8.21167 107.956 8.27667 108.129 8.372C108.302 8.45867 108.467 8.58 108.623 8.736C108.788 8.892 108.922 9.087 109.026 9.321C109.13 9.555 109.182 9.83233 109.182 10.153V10.816C109.182 11.5527 108.948 12.116 108.48 12.506C108.021 12.8873 107.371 13.078 106.53 13.078ZM114.498 13.065C113.909 13.065 113.324 13.052 112.743 13.026C112.163 13 111.643 12.9653 111.183 12.922V12.129H114.511C114.901 12.129 115.239 12.0683 115.525 11.947C115.811 11.817 116.032 11.635 116.188 11.401C116.353 11.1583 116.435 10.8767 116.435 10.556V9.516C116.435 9.06533 116.305 8.71433 116.045 8.463C115.785 8.203 115.387 8.073 114.849 8.073H113.822C113.432 8.073 113.12 8.15967 112.886 8.333C112.652 8.50633 112.501 8.78367 112.431 9.165H111.456L111.729 3.432H117.15V4.368H112.626L112.457 7.878C112.561 7.70467 112.743 7.54867 113.003 7.41C113.272 7.26267 113.61 7.189 114.017 7.189H115.161C115.664 7.189 116.084 7.28433 116.422 7.475C116.76 7.657 117.02 7.91267 117.202 8.242C117.384 8.56267 117.475 8.92667 117.475 9.334V10.751C117.475 11.271 117.35 11.7043 117.098 12.051C116.847 12.389 116.5 12.6447 116.058 12.818C115.616 12.9827 115.096 13.065 114.498 13.065ZM121.855 13.039C121.456 13.039 121.092 12.9697 120.763 12.831C120.434 12.6837 120.156 12.4323 119.931 12.077C119.706 11.7217 119.528 11.232 119.398 10.608C119.277 9.984 119.216 9.18667 119.216 8.216C119.216 7.358 119.29 6.62133 119.437 6.006C119.593 5.39067 119.818 4.888 120.113 4.498C120.408 4.108 120.763 3.822 121.179 3.64C121.595 3.44933 122.072 3.354 122.609 3.354C122.973 3.354 123.376 3.37133 123.818 3.406C124.26 3.432 124.65 3.46233 124.988 3.497V4.29H122.622C121.885 4.29 121.305 4.576 120.88 5.148C120.464 5.71133 120.256 6.57367 120.256 7.735C120.516 7.70033 120.802 7.67433 121.114 7.657C121.435 7.631 121.751 7.618 122.063 7.618C122.375 7.60933 122.652 7.605 122.895 7.605C123.467 7.605 123.952 7.67 124.351 7.8C124.75 7.93 125.049 8.14233 125.248 8.437C125.456 8.73167 125.56 9.12167 125.56 9.607V10.946C125.56 11.4573 125.46 11.8647 125.261 12.168C125.062 12.4713 124.793 12.6923 124.455 12.831C124.117 12.9697 123.744 13.039 123.337 13.039H121.855ZM122.024 12.103H123.142C123.402 12.103 123.636 12.0683 123.844 11.999C124.052 11.921 124.217 11.791 124.338 11.609C124.468 11.4183 124.533 11.1453 124.533 10.79V9.776C124.533 9.412 124.459 9.139 124.312 8.957C124.165 8.775 123.952 8.65367 123.675 8.593C123.398 8.52367 123.06 8.489 122.661 8.489H120.256C120.256 9.20833 120.295 9.80633 120.373 10.283C120.451 10.751 120.564 11.1193 120.711 11.388C120.867 11.648 121.053 11.8343 121.27 11.947C121.495 12.051 121.747 12.103 122.024 12.103ZM130.897 13V3.432H131.937V7.761H133.614L136.24 3.432H137.332L134.433 8.216L137.371 13H136.266L133.614 8.697H131.937V13H130.897ZM138.756 13V6.058H139.562L139.783 6.825C140.129 6.58233 140.515 6.37433 140.94 6.201C141.373 6.02767 141.854 5.941 142.383 5.941C142.816 5.941 143.184 6.04067 143.488 6.24C143.8 6.43067 144.034 6.67333 144.19 6.968C144.406 6.812 144.666 6.656 144.97 6.5C145.282 6.344 145.611 6.214 145.958 6.11C146.313 5.99733 146.655 5.941 146.985 5.941C147.487 5.941 147.899 6.04933 148.22 6.266C148.54 6.474 148.774 6.76 148.922 7.124C149.078 7.47933 149.156 7.878 149.156 8.32V13H148.129V8.398C148.129 8.10333 148.068 7.84333 147.947 7.618C147.834 7.384 147.669 7.202 147.453 7.072C147.236 6.942 146.972 6.877 146.66 6.877C146.27 6.877 145.871 6.95067 145.464 7.098C145.056 7.24533 144.679 7.423 144.333 7.631C144.376 7.761 144.406 7.891 144.424 8.021C144.45 8.14233 144.463 8.27233 144.463 8.411V13H143.436V8.398C143.436 8.10333 143.375 7.84333 143.254 7.618C143.141 7.384 142.976 7.202 142.76 7.072C142.552 6.942 142.292 6.877 141.98 6.877C141.694 6.877 141.425 6.90733 141.174 6.968C140.931 7.02 140.697 7.098 140.472 7.202C140.255 7.29733 140.025 7.41433 139.783 7.553V13H138.756ZM150.381 13.936L154.034 2.99H155.035L151.382 13.936H150.381ZM156.313 13V3.081H157.34V6.825C157.661 6.591 158.042 6.38733 158.484 6.214C158.935 6.032 159.403 5.941 159.888 5.941C160.374 5.941 160.772 6.045 161.084 6.253C161.405 6.461 161.639 6.74267 161.786 7.098C161.942 7.45333 162.02 7.84767 162.02 8.281V13H160.993V8.385C160.993 8.09033 160.933 7.83033 160.811 7.605C160.699 7.37967 160.534 7.202 160.317 7.072C160.101 6.942 159.841 6.877 159.537 6.877C159.251 6.877 158.987 6.90733 158.744 6.968C158.502 7.02 158.268 7.098 158.042 7.202C157.817 7.29733 157.583 7.41433 157.34 7.553V13H156.313Z" fill="white"/>
<path d="M85.1667 4.33333V13.6667H95.8333V4.33333H85.1667ZM84.5 3H96.5C96.6768 3 96.8464 3.07024 96.9714 3.19526C97.0964 3.32029 97.1667 3.48986 97.1667 3.66667V14.3333C97.1667 14.5101 97.0964 14.6797 96.9714 14.8047C96.8464 14.9298 96.6768 15 96.5 15H84.5C84.3232 15 84.1536 14.9298 84.0286 14.8047C83.9036 14.6797 83.8333 14.5101 83.8333 14.3333V3.66667C83.8333 3.48986 83.9036 3.32029 84.0286 3.19526C84.1536 3.07024 84.3232 3 84.5 3ZM92.362 7.52867L91.1667 6.33333H94.5V9.66667L93.3047 8.47133L90.7287 11.0473L89.3147 9.63333L87.4287 11.5187L86.486 10.576L89.3147 7.74733L90.7287 9.162L92.362 7.52867Z" fill="white"/>
<path d="M24.529 39.052C24.321 39.052 24.1 39.0347 23.866 39C23.632 38.9567 23.411 38.8743 23.203 38.753C22.995 38.6317 22.826 38.4497 22.696 38.207C22.566 37.9557 22.501 37.6177 22.501 37.193V31.356C22.501 30.9833 22.553 30.6757 22.657 30.433C22.7697 30.1817 22.917 29.9867 23.099 29.848C23.281 29.7007 23.4847 29.5967 23.71 29.536C23.9353 29.4667 24.1607 29.432 24.386 29.432C24.9233 29.4407 25.4217 29.4537 25.881 29.471C26.3403 29.4797 26.7737 29.4927 27.181 29.51C27.597 29.5187 28 29.5317 28.39 29.549V30.381H24.646C24.308 30.381 24.0393 30.472 23.84 30.654C23.6407 30.836 23.541 31.1263 23.541 31.525V33.787L27.818 33.852V34.645L23.541 34.71V36.959C23.541 37.2797 23.593 37.5223 23.697 37.687C23.8097 37.8517 23.957 37.96 24.139 38.012C24.321 38.064 24.5073 38.09 24.698 38.09H28.39V38.922C27.9913 38.948 27.571 38.9697 27.129 38.987C26.6957 39.0043 26.258 39.0173 25.816 39.026C25.3827 39.0347 24.9537 39.0433 24.529 39.052ZM31.9379 39.013C31.5392 39.013 31.2055 38.9437 30.9369 38.805C30.6682 38.6577 30.4645 38.4237 30.3259 38.103C30.1872 37.7737 30.1179 37.3317 30.1179 36.777V29.081H31.1449V36.647C31.1449 37.063 31.1839 37.3793 31.2619 37.596C31.3399 37.804 31.4525 37.9513 31.5999 38.038C31.7472 38.116 31.9205 38.168 32.1199 38.194L32.8219 38.272V39.013H31.9379ZM36.5912 39.078C35.8632 39.078 35.2868 38.9697 34.8622 38.753C34.4462 38.5363 34.1472 38.168 33.9652 37.648C33.7832 37.128 33.6922 36.4173 33.6922 35.516C33.6922 34.5973 33.7832 33.8823 33.9652 33.371C34.1558 32.851 34.4635 32.487 34.8882 32.279C35.3128 32.071 35.8848 31.967 36.6042 31.967C37.2195 31.967 37.7178 32.0363 38.0992 32.175C38.4892 32.3137 38.7752 32.552 38.9572 32.89C39.1478 33.2193 39.2432 33.6787 39.2432 34.268C39.2432 34.6753 39.1608 35.0047 38.9962 35.256C38.8402 35.4987 38.6105 35.6763 38.3072 35.789C38.0125 35.893 37.6615 35.945 37.2542 35.945H34.7192C34.7278 36.5083 34.7885 36.9633 34.9012 37.31C35.0138 37.648 35.2175 37.895 35.5122 38.051C35.8155 38.1983 36.2575 38.272 36.8382 38.272H39.0742V38.896C38.6755 38.948 38.2855 38.9913 37.9042 39.026C37.5228 39.0607 37.0852 39.078 36.5912 39.078ZM34.7062 35.269H37.1762C37.5662 35.269 37.8522 35.1997 38.0342 35.061C38.2248 34.9137 38.3202 34.6537 38.3202 34.281C38.3202 33.8823 38.2595 33.5747 38.1382 33.358C38.0255 33.1327 37.8435 32.9767 37.5922 32.89C37.3495 32.7947 37.0202 32.747 36.6042 32.747C36.1188 32.747 35.7375 32.8207 35.4602 32.968C35.1828 33.1067 34.9878 33.358 34.8752 33.722C34.7625 34.086 34.7062 34.6017 34.7062 35.269ZM43.4944 39.078C43.1044 39.078 42.7404 39.026 42.4024 38.922C42.0644 38.818 41.7697 38.636 41.5184 38.376C41.267 38.116 41.072 37.7563 40.9334 37.297C40.7947 36.8377 40.7254 36.2527 40.7254 35.542C40.7254 34.8227 40.7904 34.2333 40.9204 33.774C41.0504 33.306 41.2367 32.942 41.4794 32.682C41.722 32.422 42.0167 32.24 42.3634 32.136C42.71 32.032 43.0957 31.98 43.5204 31.98C43.867 31.98 44.244 31.9973 44.6514 32.032C45.0587 32.058 45.4487 32.1013 45.8214 32.162V32.773H43.7934C43.3514 32.773 42.9787 32.8467 42.6754 32.994C42.372 33.1413 42.1424 33.4187 41.9864 33.826C41.8304 34.2247 41.7524 34.8053 41.7524 35.568C41.7524 36.3047 41.8347 36.868 41.9994 37.258C42.164 37.648 42.398 37.9167 42.7014 38.064C43.0047 38.2027 43.373 38.272 43.8064 38.272H45.9254V38.87C45.726 38.9047 45.492 38.9393 45.2234 38.974C44.9634 39.0087 44.686 39.0347 44.3914 39.052C44.0967 39.0693 43.7977 39.078 43.4944 39.078ZM49.6464 39C49.1958 39 48.8231 38.9263 48.5284 38.779C48.2338 38.6317 48.0171 38.3933 47.8784 38.064C47.7398 37.7347 47.6748 37.297 47.6834 36.751L47.7224 32.903H46.6174V32.24L47.7354 32.058L47.9044 30.121H48.6974V32.058H50.6994V32.903H48.6974V36.751C48.6974 37.0543 48.7278 37.297 48.7884 37.479C48.8578 37.661 48.9444 37.7997 49.0484 37.895C49.1611 37.9903 49.2781 38.0597 49.3994 38.103C49.5208 38.1377 49.6378 38.1593 49.7504 38.168L50.5954 38.246V39H49.6464ZM52.1189 39V32.058H52.8989L53.1459 33.267C53.4579 32.8943 53.8045 32.5867 54.1859 32.344C54.5759 32.1013 55.0222 31.98 55.5249 31.98C55.6462 31.98 55.7589 31.9843 55.8629 31.993C55.9755 32.0017 56.0795 32.019 56.1749 32.045V33.098C56.0622 33.0807 55.9409 33.0677 55.8109 33.059C55.6809 33.0417 55.5509 33.033 55.4209 33.033C55.1002 33.033 54.8142 33.072 54.5629 33.15C54.3115 33.228 54.0732 33.345 53.8479 33.501C53.6225 33.657 53.3885 33.8477 53.1459 34.073V39H52.1189ZM57.6323 30.823C57.4936 30.823 57.4243 30.7537 57.4243 30.615V29.601C57.4243 29.4623 57.4936 29.393 57.6323 29.393H58.3603C58.4296 29.393 58.4773 29.4147 58.5033 29.458C58.5379 29.4927 58.5553 29.5403 58.5553 29.601V30.615C58.5553 30.7537 58.4903 30.823 58.3603 30.823H57.6323ZM57.4763 39V32.058H58.5033V39H57.4763ZM63.0071 39.078C62.6171 39.078 62.2531 39.026 61.9151 38.922C61.5771 38.818 61.2824 38.636 61.0311 38.376C60.7797 38.116 60.5847 37.7563 60.4461 37.297C60.3074 36.8377 60.2381 36.2527 60.2381 35.542C60.2381 34.8227 60.3031 34.2333 60.4331 33.774C60.5631 33.306 60.7494 32.942 60.9921 32.682C61.2347 32.422 61.5294 32.24 61.8761 32.136C62.2227 32.032 62.6084 31.98 63.0331 31.98C63.3797 31.98 63.7567 31.9973 64.1641 32.032C64.5714 32.058 64.9614 32.1013 65.3341 32.162V32.773H63.3061C62.8641 32.773 62.4914 32.8467 62.1881 32.994C61.8847 33.1413 61.6551 33.4187 61.4991 33.826C61.3431 34.2247 61.2651 34.8053 61.2651 35.568C61.2651 36.3047 61.3474 36.868 61.5121 37.258C61.6767 37.648 61.9107 37.9167 62.2141 38.064C62.5174 38.2027 62.8857 38.272 63.3191 38.272H65.4381V38.87C65.2387 38.9047 65.0047 38.9393 64.7361 38.974C64.4761 39.0087 64.1987 39.0347 63.9041 39.052C63.6094 39.0693 63.3104 39.078 63.0071 39.078Z" fill="white"/>
<path d="M14.8333 34.3333H14.1667V31.6667H14.8333V29.6667H16.1667V31.6667H16.8333V34.3333H16.1667V39C16.1667 39.5304 15.956 40.0391 15.5809 40.4142C15.2058 40.7893 14.6971 41 14.1667 41C13.6362 41 13.1275 40.7893 12.7525 40.4142C12.3774 40.0391 12.1667 39.5304 12.1667 39V36.3333H10.8333V39.6667H11.5V41H2.83334V39.6667H3.50001V29.6667C3.50001 29.4899 3.57025 29.3203 3.69527 29.1953C3.8203 29.0702 3.98987 29 4.16668 29H10.1667C10.3435 29 10.5131 29.0702 10.6381 29.1953C10.7631 29.3203 10.8333 29.4899 10.8333 29.6667V35H12.1667C12.5203 35 12.8594 35.1405 13.1095 35.3905C13.3595 35.6406 13.5 35.9797 13.5 36.3333V39C13.5 39.1768 13.5702 39.3464 13.6953 39.4714C13.8203 39.5964 13.9899 39.6667 14.1667 39.6667C14.3435 39.6667 14.5131 39.5964 14.6381 39.4714C14.7631 39.3464 14.8333 39.1768 14.8333 39V34.3333ZM9.50001 39.6667V30.3333H4.83334V39.6667H9.50001ZM7.50001 34.3333H9.50001L6.83334 38.3333V35.6667H4.83334L7.50001 31.6667V34.3333Z" fill="white"/>
</svg>
